<?xml version="1.0" encoding="UTF-8" standalone="no"?>
<svg
   xmlns:dc="http://purl.org/dc/elements/1.1/"
   xmlns:cc="http://creativecommons.org/ns#"
   xmlns:rdf="http://www.w3.org/1999/02/22-rdf-syntax-ns#"
   xmlns:svg="http://www.w3.org/2000/svg"
   xmlns="http://www.w3.org/2000/svg"
   xmlns:sodipodi="http://sodipodi.sourceforge.net/DTD/sodipodi-0.dtd"
   xmlns:inkscape="http://www.inkscape.org/namespaces/inkscape"
   version="1.1"
   x="0px"
   y="0px"
   viewBox="0 0 100 100"
   xml:space="preserve"
   id="svg14"
   sodipodi:docname="filter.svg"
   inkscape:version="0.92.1 r"
   width="100"
   height="100"><metadata
     id="metadata20"><rdf:RDF><cc:Work
         rdf:about=""><dc:format>image/svg+xml</dc:format><dc:type
           rdf:resource="http://purl.org/dc/dcmitype/StillImage" /><dc:title></dc:title></cc:Work></rdf:RDF></metadata><defs
     id="defs18" /><sodipodi:namedview
     pagecolor="#ffffff"
     bordercolor="#666666"
     borderopacity="1"
     objecttolerance="10"
     gridtolerance="10"
     guidetolerance="10"
     inkscape:pageopacity="0"
     inkscape:pageshadow="2"
     inkscape:window-width="1366"
     inkscape:window-height="704"
     id="namedview16"
     showgrid="false"
     units="cm"
     height="0.8"
     inkscape:zoom="1.888"
     inkscape:cx="30.059322"
     inkscape:cy="18.497034"
     inkscape:window-x="0"
     inkscape:window-y="27"
     inkscape:window-maximized="1"
     inkscape:current-layer="svg14" /><g
     id="g8"
     transform="translate(-0.05)"><path
       d="m 45.6,48.5 v 36.2 c 0,2.4 1.9,4.3 4.4,4.3 2.4,0 4.4,-1.9 4.4,-4.3 V 48.5 C 60.1,46.6 64,41.3 64,35.4 64,29.5 60.1,24.2 54.4,22.3 v -7 C 54.4,12.9 52.5,11 50,11 c -2.4,0 -4.4,1.9 -4.4,4.3 v 7 c -5.7,1.9 -9.6,7.2 -9.6,13.1 0.1,5.9 4,11.2 9.6,13.1 z M 44.8,35.4 c 0,-2.9 2.3,-5.2 5.2,-5.2 2.9,0 5.2,2.3 5.2,5.2 0,2.9 -2.3,5.2 -5.2,5.2 -2.9,0 -5.2,-2.3 -5.2,-5.2 z"
       id="path2"
       inkscape:connector-curvature="0" /><path
       d="m 16.6,77.4 v 7.3 c 0,2.4 1.9,4.3 4.4,4.3 2.5,0 4.4,-1.9 4.4,-4.3 V 77.4 C 31.1,75.5 35,70.2 35,64.3 35,58.4 31.1,53.1 25.4,51.2 V 15.3 C 25.4,12.9 23.5,11 21,11 c -2.5,0 -4.4,1.9 -4.4,4.3 V 51.2 C 10.9,53.1 7,58.4 7,64.3 c 0,5.9 3.9,11.2 9.6,13.1 z M 15.7,64.3 c 0,-2.9 2.3,-5.2 5.2,-5.2 2.9,0 5.2,2.3 5.2,5.2 0,2.9 -2.3,5.2 -5.2,5.2 -2.7,0 -5.2,-2.4 -5.2,-5.2 z"
       id="path4"
       inkscape:connector-curvature="0" /><path
       d="m 74.7,77.4 v 7.3 c 0,2.4 1.9,4.3 4.4,4.3 2.4,0 4.4,-1.9 4.4,-4.3 v -7.3 c 5.7,-1.9 9.6,-7.2 9.6,-13.1 0,-5.9 -3.9,-11.2 -9.6,-13.1 V 15.3 c 0,-2.4 -1.9,-4.3 -4.4,-4.3 -2.4,0 -4.4,1.9 -4.4,4.3 v 35.9 c -5.7,1.9 -9.6,7.2 -9.6,13.1 0,5.9 3.9,11.2 9.6,13.1 z M 73.8,64.3 c 0,-2.9 2.3,-5.2 5.2,-5.2 2.9,0 5.2,2.3 5.2,5.2 0,2.9 -2.3,5.2 -5.2,5.2 -2.9,0 -5.2,-2.3 -5.2,-5.2 z"
       id="path6"
       inkscape:connector-curvature="0" /></g></svg>